# Blender v2.91.0 OBJ File: ''
# www.blender.org
o WinterTower_v2_Cube.001
v -1.779718 0.575480 1.690236
v -1.779718 4.213078 1.690237
v -1.779718 0.575480 1.351975
v -1.779718 4.213078 1.351976
v -1.441458 0.575480 1.690236
v -1.441458 4.213078 1.690237
v -1.441458 0.575480 1.351975
v -1.441458 4.213078 1.351976
v 1.469591 0.575480 1.690236
v 1.469591 4.213078 1.690237
v 1.469591 0.575480 1.351975
v 1.469591 4.213078 1.351976
v 1.807854 0.575480 1.690236
v 1.807854 4.213078 1.690237
v 1.807854 0.575480 1.351975
v 1.807854 4.213078 1.351976
v -1.779718 0.575480 -1.376617
v -1.779718 4.213079 -1.376616
v -1.779718 0.575480 -1.714878
v -1.779718 4.213079 -1.714877
v -1.441458 0.575480 -1.376617
v -1.441458 4.213079 -1.376616
v -1.441458 0.575480 -1.714878
v -1.441458 4.213079 -1.714877
v 1.469591 0.575480 -1.376617
v 1.469591 4.213079 -1.376616
v 1.469591 0.575480 -1.714878
v 1.469591 4.213079 -1.714877
v 1.807854 0.575480 -1.376617
v 1.807854 4.213079 -1.376616
v 1.807854 0.575480 -1.714878
v 1.807854 4.213079 -1.714877
v -2.012720 0.008325 1.981471
v -2.012720 0.008324 -2.018528
v 1.987280 0.008325 1.981471
v 1.987280 0.008324 -2.018528
v -2.012720 0.627038 1.981471
v -2.012720 0.627038 -2.018528
v 1.987280 0.627038 -2.018528
v 1.987280 0.627038 1.981471
v -1.671961 0.740026 1.640713
v -1.632719 4.035867 1.601471
v -1.632719 4.035866 -1.638529
v -1.671961 0.740026 -1.677771
v 1.607281 4.035866 -1.638529
v 1.607281 0.769435 -1.638529
v 1.607281 4.035867 1.601471
v 1.646523 0.740025 1.640713
v 0.839525 4.154166 1.401880
v 1.948038 0.656448 -1.979287
v -1.973478 0.656448 -1.979287
v -1.632719 0.769436 1.601471
v 1.607281 0.769436 1.601471
v -1.632719 0.769436 -1.638529
v -1.973478 0.656448 1.942229
v 1.948038 0.656448 1.942229
v 1.646523 0.740025 -1.677771
v -1.940679 0.728718 -1.946487
v 1.768988 0.812295 -1.800237
v 1.915239 0.728718 -1.946487
v 1.915239 0.728718 1.909431
v -1.794428 0.812296 1.763180
v -1.940679 0.728719 1.909431
v -1.794428 0.812296 -1.800237
v 1.768990 0.812295 1.763180
v -1.949775 3.912902 2.009526
v -1.949775 3.912902 -2.048383
v 1.921425 3.923415 -2.050856
v 1.921425 3.923414 2.007052
v -1.949775 4.678210 0.221726
v -1.949775 4.678210 -0.229870
v 1.921425 4.688723 -0.232343
v 1.921425 4.688724 0.219253
v 1.889652 4.095345 -2.016449
v -1.918005 4.095345 -2.016449
v -1.918005 4.095523 1.978642
v 1.889652 4.095523 1.978642
v 1.921425 4.847410 -0.229402
v -1.949775 4.847410 -0.229402
v -1.949775 4.847410 0.222193
v 1.889652 4.847410 0.222193
v 1.921425 4.082102 -2.047916
v -1.949775 4.082102 -2.047916
v -1.949775 4.082101 2.009993
v 1.921425 4.082101 2.009993
v -1.918005 4.847410 -0.229402
v -1.918005 4.847410 0.222193
v 1.921425 4.847410 0.222193
v 1.889652 4.847410 -0.229402
v 1.878901 4.898571 -0.228170
v -1.907253 4.898571 -0.228170
v -1.907253 4.898571 0.220875
v 1.878901 4.898571 0.220875
v 1.878901 4.150753 -2.005124
v -1.907253 4.150753 -2.005124
v -1.907253 4.150930 1.967403
v 1.878901 4.150930 1.967403
v -1.211796 4.975619 1.070506
v -1.211796 4.975618 -1.103134
v 1.180798 4.982944 -1.104459
v 1.180798 4.982945 1.069181
v -1.211796 5.508965 0.112862
v -1.211796 5.508965 -0.129038
v 1.180798 5.516291 -0.130362
v 1.180798 5.516293 0.111537
v 1.161162 5.102763 -1.086028
v -1.192160 5.102763 -1.086028
v -1.192160 5.102888 1.053962
v 1.161162 5.102888 1.053963
v 1.180798 5.626881 -0.128787
v -1.211796 5.626881 -0.128787
v -1.211796 5.626883 0.113112
v 1.161162 5.626883 0.113112
v 1.180798 5.093535 -1.102884
v -1.211796 5.093535 -1.102884
v -1.211796 5.093535 1.070756
v 1.180798 5.093535 1.070756
v -1.192160 5.626881 -0.128787
v -1.192160 5.626883 0.113112
v 1.180798 5.626883 0.113112
v 1.161162 5.626881 -0.128787
v 1.154516 5.662536 -0.128127
v -1.185512 5.662536 -0.128127
v -1.185512 5.662536 0.112406
v 1.154516 5.662536 0.112406
v 1.154514 5.141378 -1.079961
v -1.185514 5.141378 -1.079962
v -1.185512 5.141501 1.047943
v 1.154516 5.141501 1.047943
v 1.162098 3.593637 0.904021
v 1.162098 4.993636 0.904021
v -1.186725 3.593637 0.904021
v -1.186725 4.993636 0.904021
v 1.162098 3.593637 -0.920767
v 1.162098 4.993636 -0.920767
v -1.186725 3.593637 -0.920767
v -1.186725 4.993636 -0.920767
vt 0.809835 0.611610
vt 0.804736 0.600721
vt 0.815637 0.600762
vt 0.815148 0.606283
vt 0.804736 0.611156
vt 0.810537 0.600308
vt 0.815637 0.611196
vt 0.805224 0.605635
vt 0.798926 0.622920
vt 0.793826 0.612032
vt 0.804727 0.612073
vt 0.804239 0.617593
vt 0.793826 0.622466
vt 0.799627 0.611619
vt 0.804727 0.622507
vt 0.794314 0.616946
vt 0.799627 0.600308
vt 0.804727 0.611196
vt 0.793826 0.611156
vt 0.794314 0.605635
vt 0.804727 0.600762
vt 0.798926 0.611610
vt 0.793826 0.600721
vt 0.804239 0.606283
vt 0.815148 0.617593
vt 0.804736 0.622466
vt 0.804736 0.612032
vt 0.810537 0.611619
vt 0.815637 0.622507
vt 0.805224 0.616946
vt 0.815637 0.612073
vt 0.809835 0.622920
vt 0.111002 0.694817
vt 0.119451 0.678414
vt 0.111002 0.678414
vt 0.521170 0.699455
vt 0.521160 0.687189
vt 0.521170 0.699455
vt 0.396945 0.614320
vt 0.405433 0.612957
vt 0.396945 0.612957
vt 0.371481 0.614320
vt 0.379969 0.612957
vt 0.371481 0.612957
vt 0.519868 0.700770
vt 0.519779 0.685991
vt 0.519779 0.685991
vt 0.179802 0.697515
vt 0.179516 0.712972
vt 0.179860 0.712685
vt 0.195030 0.712628
vt 0.195317 0.697171
vt 0.194973 0.697458
vt 0.533363 0.699443
vt 0.533363 0.699443
vt 0.388457 0.614320
vt 0.388457 0.612957
vt 0.533423 0.687253
vt 0.533423 0.687253
vt 0.195317 0.712972
vt 0.179516 0.697171
vt 0.119451 0.694817
vt 0.534652 0.685935
vt 0.534741 0.700714
vt 0.534741 0.700714
vt 0.521160 0.687189
vt 0.534652 0.685935
vt 0.519868 0.700770
vt 0.379969 0.614320
vt 0.194897 0.712433
vt 0.194808 0.697654
vt 0.181326 0.711174
vt 0.181495 0.699091
vt 0.181316 0.698908
vt 0.193397 0.699150
vt 0.193580 0.698971
vt 0.180024 0.712489
vt 0.179936 0.697710
vt 0.193519 0.711162
vt 0.181436 0.710993
vt 0.193338 0.711052
vt 0.813645 0.614432
vt 0.812123 0.624261
vt 0.812123 0.624261
vt 0.805398 0.610524
vt 0.805398 0.610524
vt 0.805398 0.610524
vt 0.792969 0.605469
vt 0.792969 0.605469
vt 0.792969 0.605469
vt 0.798795 0.618230
vt 0.805398 0.610524
vt 0.798795 0.618230
vt 0.798795 0.618230
vt 0.538187 0.680807
vt 0.538187 0.680807
vt 0.538187 0.680807
vt 0.523514 0.684685
vt 0.536623 0.690618
vt 0.536623 0.690618
vt 0.530075 0.676963
vt 0.523514 0.684685
vt 0.523514 0.684685
vt 0.798795 0.618230
vt 0.813645 0.614432
vt 0.813645 0.614432
vt 0.812123 0.624261
vt 0.812123 0.624261
vt 0.792969 0.605469
vt 0.792969 0.605469
vt 0.792969 0.605469
vt 0.813645 0.614432
vt 0.805466 0.610556
vt 0.813578 0.614400
vt 0.798904 0.618279
vt 0.813578 0.614400
vt 0.812014 0.624212
vt 0.798904 0.618279
vt 0.805466 0.610556
vt 0.812014 0.624212
vt 0.530075 0.676963
vt 0.538187 0.680807
vt 0.536623 0.690618
vt 0.523514 0.684685
vt 0.536623 0.690618
vt 0.530075 0.676963
vt 0.530075 0.676963
vt 0.813645 0.614432
vt 0.812123 0.624261
vt 0.812123 0.624261
vt 0.805398 0.610524
vt 0.805398 0.610524
vt 0.805398 0.610524
vt 0.792969 0.605469
vt 0.792969 0.605469
vt 0.792969 0.605469
vt 0.798795 0.618230
vt 0.805398 0.610524
vt 0.798795 0.618230
vt 0.798795 0.618230
vt 0.538187 0.680807
vt 0.538187 0.680807
vt 0.538187 0.680807
vt 0.523514 0.684685
vt 0.536623 0.690618
vt 0.536623 0.690618
vt 0.530075 0.676963
vt 0.523514 0.684685
vt 0.523514 0.684685
vt 0.798795 0.618230
vt 0.813645 0.614432
vt 0.813645 0.614432
vt 0.812123 0.624261
vt 0.812123 0.624261
vt 0.792969 0.605469
vt 0.792969 0.605469
vt 0.792969 0.605469
vt 0.813645 0.614432
vt 0.805466 0.610556
vt 0.813578 0.614400
vt 0.812014 0.624212
vt 0.798904 0.618279
vt 0.813578 0.614400
vt 0.812014 0.624212
vt 0.798904 0.618279
vt 0.805466 0.610556
vt 0.538187 0.680807
vt 0.530075 0.676963
vt 0.536623 0.690618
vt 0.523514 0.684685
vt 0.536623 0.690618
vt 0.530075 0.676963
vt 0.530075 0.676963
vt 0.401154 0.588742
vt 0.395721 0.594176
vt 0.395721 0.588742
vt 0.401154 0.594176
vt 0.395721 0.599609
vt 0.401154 0.599609
vt 0.395721 0.605043
vt 0.401154 0.605043
vt 0.395721 0.610476
vt 0.406588 0.599609
vt 0.405433 0.614320
vt 0.792969 0.605469
vt 0.792969 0.605469
vt 0.792969 0.605469
vt 0.792969 0.605469
vt 0.401154 0.610476
vt 0.406588 0.605043
vn -1.0000 -0.0000 0.0000
vn 0.0000 0.0000 -1.0000
vn 1.0000 0.0000 0.0000
vn 0.0000 -0.0000 1.0000
vn 0.0000 -1.0000 0.0000
vn 0.0000 0.8612 -0.5082
vn -0.0000 0.4133 0.9106
vn -0.5082 0.8612 0.0000
vn 0.0000 0.8612 0.5082
vn 0.0000 0.4133 -0.9106
vn 0.5082 0.8612 -0.0000
vn -0.9106 0.4133 -0.0000
vn 0.9106 0.4133 -0.0000
vn 0.3311 0.8836 -0.3311
vn -0.3311 0.8836 -0.3311
vn 0.3311 0.8836 0.3311
vn -0.3311 0.8836 0.3311
vn 0.0000 0.8682 -0.4962
vn 0.0000 0.8682 0.4962
vn -0.4962 0.8682 -0.0000
vn 0.4962 0.8682 -0.0000
vn 0.0000 -0.0181 0.9998
vn 0.0006 -0.0032 1.0000
vn 0.0006 -0.0028 1.0000
vn -0.9745 0.2069 -0.0871
vn -0.7126 0.2706 -0.6473
vn -0.5335 0.2675 -0.8024
vn 0.5315 0.2662 0.8041
vn -0.7127 0.2696 0.6476
vn -0.5315 0.2662 0.8041
vn 0.9786 0.2057 0.0000
vn -0.0000 0.0181 -0.9998
vn -0.0006 0.0032 -1.0000
vn 0.0000 0.0185 -0.9998
vn 0.0000 0.9217 -0.3879
vn 0.0000 0.9193 0.3935
vn 0.0000 0.9802 -0.1979
vn -0.0000 0.9796 0.2009
vn 0.0000 1.0000 -0.0000
vn -0.9743 0.2070 0.0886
vn -0.9786 0.2057 0.0000
vn 0.7126 0.2706 -0.6473
vn 0.5335 0.2675 -0.8024
vn 0.9743 0.2070 0.0886
vn 0.7127 0.2697 0.6476
vn 0.9745 0.2069 -0.0871
vn 0.0000 -0.0139 0.9999
vn 0.0005 -0.0025 1.0000
vn 0.0006 -0.0021 1.0000
vn -0.9777 0.1841 -0.1008
vn -0.7254 0.2269 -0.6498
vn -0.5091 0.2184 -0.8325
vn 0.5065 0.2172 0.8344
vn -0.7255 0.2262 0.6500
vn -0.5065 0.2173 0.8344
vn 0.9831 0.1832 -0.0000
vn -0.0000 0.0139 -0.9999
vn -0.0005 0.0025 -1.0000
vn 0.0000 0.0142 -0.9999
vn -0.0000 0.8771 -0.4803
vn 0.0000 0.8771 -0.4802
vn 0.0000 0.8772 -0.4802
vn 0.0000 0.8736 0.4866
vn -0.0000 0.8737 0.4866
vn 0.0000 0.9688 -0.2479
vn 0.0000 0.9679 0.2513
vn -0.9775 0.1843 0.1026
vn -0.9831 0.1833 0.0000
vn 0.7254 0.2270 -0.6499
vn 0.5091 0.2184 -0.8325
vn 0.9775 0.1842 0.1026
vn 0.7255 0.2262 0.6500
vn 0.9777 0.1841 -0.1008
vn 0.0027 -1.0000 -0.0000
vn 0.0031 -1.0000 0.0000
vn 0.0000 -0.0185 0.9998
vn -0.0006 0.0028 -1.0000
vn -0.0000 -0.0142 0.9999
vn -0.0006 0.0021 -1.0000
s 1
f 2/1/1 3/2/1 1/3/1
f 4/4/2 7/5/2 3/2/2
f 8/6/3 5/7/3 7/5/3
f 6/8/4 1/3/4 5/7/4
f 10/9/1 11/10/1 9/11/1
f 12/12/2 15/13/2 11/10/2
f 16/14/3 13/15/3 15/13/3
f 14/16/4 9/11/4 13/15/4
f 18/17/1 19/18/1 17/19/1
f 20/20/2 23/21/2 19/18/2
f 24/22/3 21/23/3 23/21/3
f 22/24/4 17/19/4 21/23/4
f 26/25/1 27/26/1 25/27/1
f 28/28/2 31/29/2 27/26/2
f 32/30/3 29/31/3 31/29/3
f 30/32/4 25/27/4 29/31/4
f 34/33/5 35/34/5 33/35/5
f 48/36/6 62/37/6 65/38/6
f 47/39/4 52/40/4 53/41/4
f 42/42/1 54/43/1 52/44/1
f 56/45/7 63/46/7 55/47/7
f 37/48/4 35/49/4 40/50/4
f 39/51/2 34/52/2 38/53/2
f 57/54/8 65/38/8 59/55/8
f 45/56/3 53/41/3 46/57/3
f 44/58/9 59/55/9 64/59/9
f 40/50/3 36/60/3 39/51/3
f 38/53/1 33/61/1 37/48/1
f 34/33/5 36/62/5 35/34/5
f 51/63/10 60/64/10 50/65/10
f 44/58/11 62/37/11 41/66/11
f 37/48/4 33/61/4 35/49/4
f 39/51/2 36/60/2 34/52/2
f 55/47/12 58/67/12 51/63/12
f 50/65/13 61/68/13 56/45/13
f 40/50/3 35/49/3 36/60/3
f 38/53/1 34/52/1 33/61/1
f 43/69/2 46/57/2 54/43/2
f 50/70/14 38/53/15 51/71/15
f 48/72/16 52/73/17 41/74/17
f 41/74/17 54/75/15 44/76/15
f 56/77/16 37/48/17 40/50/16
f 51/71/15 37/48/17 55/78/17
f 57/79/14 53/80/16 48/72/16
f 56/77/16 39/51/14 50/70/14
f 44/76/15 46/81/14 57/79/14
f 58/67/18 59/55/18 60/64/18
f 61/68/19 62/37/19 63/46/19
f 63/46/20 64/59/20 58/67/20
f 60/64/21 65/38/21 61/68/21
f 58/67/18 64/59/18 59/55/18
f 61/68/19 65/38/19 62/37/19
f 63/46/20 62/37/20 64/59/20
f 60/64/21 59/55/21 65/38/21
f 71/82/1 66/83/1 70/84/1
f 72/85/3 82/86/3 78/87/3
f 69/88/22 84/89/23 66/90/24
f 72/85/3 69/91/3 68/92/3
f 73/93/3 85/94/3 69/91/3
f 86/95/25 95/96/26 75/97/27
f 77/98/28 96/99/29 76/100/30
f 89/101/31 93/102/31 81/103/31
f 73/93/3 78/87/3 88/104/3
f 71/82/1 83/105/1 67/106/1
f 70/84/1 84/107/1 80/108/1
f 68/109/32 83/110/33 82/111/34
f 70/84/1 79/112/1 71/82/1
f 74/113/35 83/105/35 75/114/35
f 77/115/36 84/107/36 85/94/36
f 86/116/37 80/108/38 87/117/38
f 81/118/38 78/87/37 89/119/37
f 76/120/36 80/108/38 84/107/36
f 74/113/35 78/87/37 82/86/35
f 75/114/35 79/112/37 86/116/37
f 77/115/36 88/104/38 81/118/38
f 90/121/35 95/96/35 91/122/35
f 92/123/36 97/124/36 93/102/36
f 93/102/39 91/122/39 92/123/39
f 87/125/40 96/99/29 92/123/40
f 86/95/41 92/123/41 91/122/41
f 75/97/27 94/126/42 74/127/43
f 81/103/44 97/124/45 77/98/28
f 89/101/46 94/126/42 90/121/46
f 103/128/1 98/129/1 102/130/1
f 104/131/3 114/132/3 110/133/3
f 101/134/47 116/135/48 98/136/49
f 104/131/3 101/137/3 100/138/3
f 105/139/3 117/140/3 101/137/3
f 118/141/50 127/142/51 107/143/52
f 109/144/53 128/145/54 108/146/55
f 121/147/56 125/148/56 113/149/56
f 105/139/3 110/133/3 120/150/3
f 103/128/1 115/151/1 99/152/1
f 102/130/1 116/153/1 112/154/1
f 100/155/57 115/156/58 114/157/59
f 102/130/1 111/158/1 103/128/1
f 106/159/60 115/151/61 107/160/62
f 108/161/63 117/140/64 109/162/64
f 118/163/65 112/154/66 119/164/66
f 113/165/66 110/133/65 121/166/65
f 108/161/63 112/154/66 116/153/63
f 106/159/60 110/133/65 114/132/60
f 107/160/62 111/158/65 118/163/65
f 109/162/64 120/150/66 113/165/66
f 123/167/60 126/168/60 127/142/60
f 124/169/63 129/170/63 125/148/63
f 125/148/39 123/167/39 124/169/39
f 119/171/67 128/145/54 124/169/67
f 118/141/68 124/169/68 123/167/68
f 107/143/52 126/168/69 106/172/70
f 113/149/71 129/170/72 109/144/53
f 121/147/73 126/168/69 122/173/73
f 131/174/4 132/175/4 130/176/4
f 133/177/1 136/178/1 132/175/1
f 137/179/2 134/180/2 136/178/2
f 135/181/3 130/182/3 134/180/3
f 133/183/39 135/181/39 137/179/39
f 67/106/74 69/88/74 66/83/74
f 99/152/75 101/134/75 98/129/75
f 2/1/1 4/4/1 3/2/1
f 4/4/2 8/6/2 7/5/2
f 8/6/3 6/8/3 5/7/3
f 6/8/4 2/1/4 1/3/4
f 10/9/1 12/12/1 11/10/1
f 12/12/2 16/14/2 15/13/2
f 16/14/3 14/16/3 13/15/3
f 14/16/4 10/9/4 9/11/4
f 18/17/1 20/20/1 19/18/1
f 20/20/2 24/22/2 23/21/2
f 24/22/3 22/24/3 21/23/3
f 22/24/4 18/17/4 17/19/4
f 26/25/1 28/28/1 27/26/1
f 28/28/2 32/30/2 31/29/2
f 32/30/3 30/32/3 29/31/3
f 30/32/4 26/25/4 25/27/4
f 48/36/6 41/66/6 62/37/6
f 47/39/4 42/184/4 52/40/4
f 42/42/1 43/69/1 54/43/1
f 56/45/7 61/68/7 63/46/7
f 57/54/8 48/36/8 65/38/8
f 45/56/3 47/39/3 53/41/3
f 44/58/9 57/54/9 59/55/9
f 51/63/10 58/67/10 60/64/10
f 44/58/11 64/59/11 62/37/11
f 55/47/12 63/46/12 58/67/12
f 50/65/13 60/64/13 61/68/13
f 43/69/2 45/56/2 46/57/2
f 50/70/14 39/51/14 38/53/15
f 48/72/16 53/80/16 52/73/17
f 41/74/17 52/73/17 54/75/15
f 56/77/16 55/78/17 37/48/17
f 51/71/15 38/53/15 37/48/17
f 57/79/14 46/81/14 53/80/16
f 56/77/16 40/50/16 39/51/14
f 44/76/15 54/75/15 46/81/14
f 71/82/1 67/106/1 66/83/1
f 72/85/3 68/92/3 82/86/3
f 69/88/22 85/185/76 84/89/23
f 72/85/3 73/93/3 69/91/3
f 73/93/3 88/104/3 85/94/3
f 86/95/25 91/122/25 95/96/26
f 77/98/28 97/124/45 96/99/29
f 89/101/31 90/121/31 93/102/31
f 73/93/3 72/85/3 78/87/3
f 71/82/1 79/112/1 83/105/1
f 70/84/1 66/83/1 84/107/1
f 68/109/32 67/186/77 83/110/33
f 70/84/1 80/108/1 79/112/1
f 74/113/35 82/86/35 83/105/35
f 77/115/36 76/120/36 84/107/36
f 86/116/37 79/112/37 80/108/38
f 81/118/38 88/104/38 78/87/37
f 76/120/36 87/117/38 80/108/38
f 74/113/35 89/119/37 78/87/37
f 75/114/35 83/105/35 79/112/37
f 77/115/36 85/94/36 88/104/38
f 90/121/35 94/126/35 95/96/35
f 92/123/36 96/99/36 97/124/36
f 93/102/39 90/121/39 91/122/39
f 87/125/40 76/100/30 96/99/29
f 86/95/41 87/125/41 92/123/41
f 75/97/27 95/96/26 94/126/42
f 81/103/44 93/102/44 97/124/45
f 89/101/46 74/127/43 94/126/42
f 103/128/1 99/152/1 98/129/1
f 104/131/3 100/138/3 114/132/3
f 101/134/47 117/187/78 116/135/48
f 104/131/3 105/139/3 101/137/3
f 105/139/3 120/150/3 117/140/3
f 118/141/50 123/167/50 127/142/51
f 109/144/53 129/170/72 128/145/54
f 121/147/56 122/173/56 125/148/56
f 105/139/3 104/131/3 110/133/3
f 103/128/1 111/158/1 115/151/1
f 102/130/1 98/129/1 116/153/1
f 100/155/57 99/188/79 115/156/58
f 102/130/1 112/154/1 111/158/1
f 106/159/60 114/132/60 115/151/61
f 108/161/63 116/153/63 117/140/64
f 118/163/65 111/158/65 112/154/66
f 113/165/66 120/150/66 110/133/65
f 108/161/63 119/164/66 112/154/66
f 106/159/60 121/166/65 110/133/65
f 107/160/62 115/151/61 111/158/65
f 109/162/64 117/140/64 120/150/66
f 123/167/60 122/173/60 126/168/60
f 124/169/63 128/145/63 129/170/63
f 125/148/39 122/173/39 123/167/39
f 119/171/67 108/146/55 128/145/54
f 118/141/68 119/171/68 124/169/68
f 107/143/52 127/142/51 126/168/69
f 113/149/71 125/148/71 129/170/72
f 121/147/73 106/172/70 126/168/69
f 131/174/4 133/177/4 132/175/4
f 133/177/1 137/179/1 136/178/1
f 137/179/2 135/181/2 134/180/2
f 135/181/3 131/189/3 130/182/3
f 133/183/39 131/190/39 135/181/39
f 67/106/74 68/92/74 69/88/74
f 99/152/75 100/138/75 101/134/75
